<svg xmlns="http://www.w3.org/2000/svg" viewBox="0 0 32 32" role="img" aria-label="Industrial AI Paper Hub">
  <defs>
    <linearGradient id="bg" x1="0" y1="0" x2="32" y2="32" gradientUnits="userSpaceOnUse">
      <stop offset="0%" stop-color="#062432"/>
      <stop offset="100%" stop-color="#0d7c96"/>
    </linearGradient>
  </defs>
  <rect width="32" height="32" rx="7" fill="url(#bg)"/>
  <path fill="#e8f4fa" d="M7.5 6.5h12.5a1 1 0 0 1 1 1v17a.5.5 0 0 1-.5.5H8a1 1 0 0 1-1-1V7.5a1 1 0 0 1 1-1z"/>
  <rect x="9" y="11.5" width="8.5" height="1.2" rx="0.6" fill="#0d7c96" opacity="0.75"/>
  <rect x="9" y="14.5" width="8.5" height="1.2" rx="0.6" fill="#0d7c96" opacity="0.75"/>
  <rect x="9" y="17.5" width="6" height="1.2" rx="0.6" fill="#0d7c96" opacity="0.55"/>
  <g transform="translate(22.5, 22.5)">
    <circle r="7" fill="#e8f4fa"/>
    <circle r="6" fill="none" stroke="#0d7c96" stroke-width="0.7" opacity="0.6"/>
    <path d="M0-5.2.95-.35L0 1.1-.95-.35Z" fill="#18a0bd"/>
    <path d="M0 1.1.95-.35L0 5.2-.95-.35Z" fill="#8ec9d8"/>
    <circle r="1" fill="#062432"/>
    <path d="M0-6.6v1.1M0 5.5v1.1M-6.6 0h1.1M5.5 0h1.1" stroke="#0d7c96" stroke-width="0.85" stroke-linecap="round"/>
  </g>
</svg>
